<?xml version="1.0" encoding="UTF-8"?>
<svg xmlns="http://www.w3.org/2000/svg" xmlns:xlink="http://www.w3.org/1999/xlink" width="912" height="1470" viewBox="0 0 912 1470">
<defs>
  <style>
    text { font-family: -apple-system, "Segoe UI", Roboto, Helvetica, Arial, sans-serif; }
  </style>
  <filter id="shadow" x="-4%" y="-4%" width="110%" height="110%">
    <feDropShadow dx="1" dy="2" stdDeviation="3" flood-opacity="0.10" />
  </filter>
  <marker id="ah" markerWidth="8" markerHeight="6" refX="7" refY="3" orient="auto">
    <polygon points="0 0, 8 3, 0 6" fill="#607D8B" />
  </marker>
  <marker id="ah-null" markerWidth="8" markerHeight="6" refX="7" refY="3" orient="auto">
    <polygon points="0 0, 8 3, 0 6" fill="#90A4AE" />
  </marker>
</defs>
<rect width="912" height="1470" fill="#FFFFFF"/>
  <symbol id="icon-rocket" viewBox="0 0 24 24"><path d="M12 2C9.5 2 8 5.5 7.5 9L5 13h3v4h8v-4h3l-2.5-4C16 5.5 14.5 2 12 2ZM9.5 18.5L8 22h2ZM14.5 18.5L16 22h-2Z"/></symbol>
  <symbol id="icon-flask" viewBox="0 0 24 24"><path d="M8 0h8v2h-2.5v7l5.5 11H5l5.5-11V2H8Z"/></symbol>
  <symbol id="icon-briefcase" viewBox="0 0 24 24"><path d="M8 4a2 2 0 0 1 2-2h4a2 2 0 0 1 2 2v1h5v7H3V5h5ZM3 14h18v6a2 2 0 0 1-2 2H5a2 2 0 0 1-2-2Z"/></symbol>
  <symbol id="icon-file" viewBox="0 0 24 24"><path d="M14 0H4v24h16V6Z"/></symbol>
  <symbol id="icon-comment" viewBox="0 0 24 24"><path d="M2 3a1 1 0 0 1 1-1h18a1 1 0 0 1 1 1v13a1 1 0 0 1-1 1h-7l-4 5v-5H3a1 1 0 0 1-1-1Z"/></symbol>
  <symbol id="icon-coins" viewBox="0 0 24 24"><path d="M12 2C6.5 2 2 4.2 2 7s4.5 5 10 5 10-2.2 10-5-4.5-5-10-5ZM2 10c0 2.8 4.5 5 10 5s10-2.2 10-5v4c0 2.8-4.5 5-10 5S2 16.8 2 14ZM2 17c0 2.8 4.5 5 10 5s10-2.2 10-5v3c0 2.8-4.5 5-10 5S2 22.8 2 20Z"/></symbol>
  <symbol id="icon-chart" viewBox="0 0 24 24"><path d="M2 2v18a2 2 0 0 0 2 2h18v-2H4V2ZM8 18h3V10H8ZM14 18h3V6h-3Z"/></symbol>
  <symbol id="icon-rotate" viewBox="0 0 24 24"><path d="M12 4V1l5 4-5 4V6a6 6 0 1 0 6 6h2a8 8 0 1 1-8-8Z"/></symbol>
<text x="456" y="28" font-size="16" fill="#212121" text-anchor="middle" font-weight="600">OpenScientist — Operations &amp; Logging</text>
<text x="456" y="48" font-size="10" fill="#616161" text-anchor="middle">7 tables  ·  RLS enabled  ·  PostgreSQL 18 UUIDv7</text>
<path d="M 280 535 C 310 530, 325 478, 355 474" fill="none" stroke="#607D8B" stroke-width="1.4" opacity="0.8"/>
<circle cx="355" cy="474" r="3" fill="#607D8B" opacity="0.8"/>
<path d="M 301 729 C 249 729, 249 478, 355 478" fill="none" stroke="#607D8B" stroke-width="1.4" opacity="0.8"/>
<circle cx="355" cy="478" r="3" fill="#607D8B" opacity="0.8"/>
<path d="M 301 157 C 237 157, 237 482, 355 482" fill="none" stroke="#607D8B" stroke-width="1.4" opacity="0.8"/>
<circle cx="355" cy="482" r="3" fill="#607D8B" opacity="0.8"/>
<path d="M 281 327 C 311 336, 325 478, 355 487" fill="none" stroke="#607D8B" stroke-width="1.4" opacity="0.8"/>
<circle cx="355" cy="487" r="3" fill="#607D8B" opacity="0.8"/>
<path d="M 542 733 C 267 733, 267 491, 355 491" fill="none" stroke="#607D8B" stroke-width="1.4" opacity="0.8"/>
<circle cx="355" cy="491" r="3" fill="#607D8B" opacity="0.8"/>
<path d="M 633 553 C 594 571, 574 477, 535 495" fill="none" stroke="#607D8B" stroke-width="1.4" opacity="0.8"/>
<circle cx="535" cy="495" r="3" fill="#607D8B" opacity="0.8"/>
<path d="M 542 336 C 243 336, 243 499, 355 499" fill="none" stroke="#607D8B" stroke-width="1.4" opacity="0.8"/>
<circle cx="355" cy="499" r="3" fill="#607D8B" opacity="0.8"/>
<rect x="633" y="386" width="219" height="229" fill="#FFFFFF" stroke="#E0E0E0" stroke-width="1" rx="6" filter="url(#shadow)"/>
<clipPath id="clip-job_data_files"><rect x="633" y="386" width="219" height="229" rx="6"/></clipPath>
<rect x="633" y="386" width="219" height="30" fill="#FFF3CD" clip-path="url(#clip-job_data_files)"/>
<rect x="633" y="416" width="4" height="199" fill="#FFF3CD" clip-path="url(#clip-job_data_files)"/>
<use href="#icon-file" x="643" y="395" width="14" height="14" fill="#212121"/>
<text x="661" y="406" font-size="12" fill="#212121" text-anchor="start" font-weight="600">JOB_DATA_FILES</text>
<text x="842" y="406" font-size="9" fill="#43A047" text-anchor="end" font-weight="600">RLS</text>
<line x1="633" y1="416" x2="852" y2="416" stroke="#E0E0E0" stroke-width="1"/>
<text x="647" y="430" font-size="10" fill="#212121" text-anchor="start">🔑</text>
<text x="665" y="430" font-size="10" fill="#212121" text-anchor="start">id: UUID</text>
<use href="#icon-briefcase" x="645" y="438" width="12" height="12" fill="#616161"/>
<text x="665" y="448" font-size="10" fill="#212121" text-anchor="start">job_id: UUID → jobs.id  [I]</text>
<text x="665" y="466" font-size="10" fill="#212121" text-anchor="start">created_at: TIMESTAMP</text>
<text x="665" y="484" font-size="10" fill="#212121" text-anchor="start">file_path: VARCHAR(500)</text>
<text x="665" y="502" font-size="10" fill="#212121" text-anchor="start">file_size: BIGINT</text>
<text x="665" y="520" font-size="10" fill="#212121" text-anchor="start">file_type: VARCHAR(50)</text>
<text x="665" y="538" font-size="10" fill="#212121" text-anchor="start">filename: VARCHAR(255)</text>
<text x="665" y="556" font-size="10" fill="#212121" text-anchor="start">mime_type: VARCHAR(100)</text>
<text x="665" y="574" font-size="10" fill="#212121" text-anchor="start">updated_at: TIMESTAMP</text>
<line x1="641" y1="592" x2="844" y2="592" stroke="#E0E0E0" stroke-width="1"/>
<text x="647" y="604" font-size="9" fill="#616161" text-anchor="start">⚡ job_id</text>
<rect x="542" y="626" width="219" height="175" fill="#FFFFFF" stroke="#E0E0E0" stroke-width="1" rx="6" filter="url(#shadow)"/>
<clipPath id="clip-job_chat_messages"><rect x="542" y="626" width="219" height="175" rx="6"/></clipPath>
<rect x="542" y="626" width="219" height="30" fill="#FFF3CD" clip-path="url(#clip-job_chat_messages)"/>
<rect x="542" y="656" width="4" height="145" fill="#FFF3CD" clip-path="url(#clip-job_chat_messages)"/>
<use href="#icon-comment" x="552" y="635" width="14" height="14" fill="#212121"/>
<text x="570" y="646" font-size="12" fill="#212121" text-anchor="start" font-weight="600">JOB_CHAT_MESSAGES</text>
<text x="751" y="646" font-size="9" fill="#43A047" text-anchor="end" font-weight="600">RLS</text>
<line x1="542" y1="656" x2="761" y2="656" stroke="#E0E0E0" stroke-width="1"/>
<text x="556" y="670" font-size="10" fill="#212121" text-anchor="start">🔑</text>
<text x="574" y="670" font-size="10" fill="#212121" text-anchor="start">id: UUID</text>
<use href="#icon-briefcase" x="554" y="678" width="12" height="12" fill="#616161"/>
<text x="574" y="688" font-size="10" fill="#212121" text-anchor="start">job_id: UUID → jobs.id  [I]</text>
<text x="574" y="706" font-size="10" fill="#212121" text-anchor="start">content: TEXT</text>
<text x="574" y="724" font-size="10" fill="#212121" text-anchor="start">created_at: TIMESTAMP</text>
<text x="574" y="742" font-size="10" fill="#212121" text-anchor="start">role: VARCHAR(20)</text>
<text x="574" y="760" font-size="10" fill="#212121" text-anchor="start">updated_at: TIMESTAMP</text>
<line x1="550" y1="778" x2="753" y2="778" stroke="#E0E0E0" stroke-width="1"/>
<text x="556" y="790" font-size="9" fill="#616161" text-anchor="start">⚡ job_id</text>
<rect x="301" y="659" width="219" height="265" fill="#FFFFFF" stroke="#E0E0E0" stroke-width="1" rx="6" filter="url(#shadow)"/>
<clipPath id="clip-cost_records"><rect x="301" y="659" width="219" height="265" rx="6"/></clipPath>
<rect x="301" y="659" width="219" height="30" fill="#FFF3CD" clip-path="url(#clip-cost_records)"/>
<rect x="301" y="689" width="4" height="235" fill="#FFF3CD" clip-path="url(#clip-cost_records)"/>
<use href="#icon-coins" x="311" y="668" width="14" height="14" fill="#212121"/>
<text x="329" y="679" font-size="12" fill="#212121" text-anchor="start" font-weight="600">COST_RECORDS</text>
<text x="510" y="679" font-size="9" fill="#43A047" text-anchor="end" font-weight="600">RLS</text>
<line x1="301" y1="689" x2="520" y2="689" stroke="#E0E0E0" stroke-width="1"/>
<text x="315" y="703" font-size="10" fill="#212121" text-anchor="start">🔑</text>
<text x="333" y="703" font-size="10" fill="#212121" text-anchor="start">id: UUID</text>
<use href="#icon-briefcase" x="313" y="711" width="12" height="12" fill="#616161"/>
<text x="333" y="721" font-size="10" fill="#212121" text-anchor="start">job_id: UUID → jobs.id  [I]</text>
<text x="333" y="739" font-size="10" fill="#212121" text-anchor="start">cost_usd: FLOAT</text>
<text x="333" y="757" font-size="10" fill="#212121" text-anchor="start">created_at: TIMESTAMP</text>
<text x="333" y="775" font-size="10" fill="#212121" text-anchor="start">input_tokens: INTEGER</text>
<text x="333" y="793" font-size="10" fill="#212121" text-anchor="start">iteration: INTEGER</text>
<text x="333" y="811" font-size="10" fill="#212121" text-anchor="start">model: VARCHAR(100)</text>
<text x="333" y="829" font-size="10" fill="#212121" text-anchor="start">operation_type: VARCHAR(50)</text>
<text x="333" y="847" font-size="10" fill="#212121" text-anchor="start">output_tokens: INTEGER</text>
<text x="333" y="865" font-size="10" fill="#212121" text-anchor="start">provider: VARCHAR(50)</text>
<text x="333" y="883" font-size="10" fill="#212121" text-anchor="start">updated_at: TIMESTAMP</text>
<line x1="309" y1="901" x2="512" y2="901" stroke="#E0E0E0" stroke-width="1"/>
<text x="315" y="913" font-size="9" fill="#616161" text-anchor="start">⚡ job_id</text>
<rect x="61" y="490" width="219" height="301" fill="#FFFFFF" stroke="#E0E0E0" stroke-width="1" rx="6" filter="url(#shadow)"/>
<clipPath id="clip-analysis_log"><rect x="61" y="490" width="219" height="301" rx="6"/></clipPath>
<rect x="61" y="490" width="219" height="30" fill="#FFF3CD" clip-path="url(#clip-analysis_log)"/>
<rect x="61" y="520" width="4" height="271" fill="#FFF3CD" clip-path="url(#clip-analysis_log)"/>
<use href="#icon-chart" x="71" y="499" width="14" height="14" fill="#212121"/>
<text x="89" y="510" font-size="12" fill="#212121" text-anchor="start" font-weight="600">ANALYSIS_LOG</text>
<text x="270" y="510" font-size="9" fill="#43A047" text-anchor="end" font-weight="600">RLS</text>
<line x1="61" y1="520" x2="280" y2="520" stroke="#E0E0E0" stroke-width="1"/>
<text x="75" y="534" font-size="10" fill="#212121" text-anchor="start">🔑</text>
<text x="93" y="534" font-size="10" fill="#212121" text-anchor="start">id: UUID</text>
<use href="#icon-briefcase" x="73" y="542" width="12" height="12" fill="#616161"/>
<text x="93" y="552" font-size="10" fill="#212121" text-anchor="start">job_id: UUID → jobs.id  [I]</text>
<text x="93" y="570" font-size="10" fill="#212121" text-anchor="start">action_type: VARCHAR(50)</text>
<text x="93" y="588" font-size="10" fill="#212121" text-anchor="start">created_at: TIMESTAMP</text>
<text x="93" y="606" font-size="10" fill="#212121" text-anchor="start">description: TEXT</text>
<text x="93" y="624" font-size="10" fill="#212121" text-anchor="start">duration_seconds: FLOAT</text>
<text x="93" y="642" font-size="10" fill="#212121" text-anchor="start">error_message: TEXT</text>
<text x="93" y="660" font-size="10" fill="#212121" text-anchor="start">input_data: JSONB</text>
<text x="93" y="678" font-size="10" fill="#212121" text-anchor="start">iteration: INTEGER</text>
<text x="93" y="696" font-size="10" fill="#212121" text-anchor="start">output_data: JSONB</text>
<text x="93" y="714" font-size="10" fill="#212121" text-anchor="start">step_number: INTEGER</text>
<text x="93" y="732" font-size="10" fill="#212121" text-anchor="start">success: BOOLEAN</text>
<text x="93" y="750" font-size="10" fill="#212121" text-anchor="start">updated_at: TIMESTAMP</text>
<line x1="69" y1="768" x2="272" y2="768" stroke="#E0E0E0" stroke-width="1"/>
<text x="75" y="780" font-size="9" fill="#616161" text-anchor="start">⚡ job_id</text>
<rect x="50" y="177" width="231" height="301" fill="#FFFFFF" stroke="#E0E0E0" stroke-width="1" rx="6" filter="url(#shadow)"/>
<clipPath id="clip-iteration_summaries"><rect x="50" y="177" width="231" height="301" rx="6"/></clipPath>
<rect x="50" y="177" width="231" height="30" fill="#FFF3CD" clip-path="url(#clip-iteration_summaries)"/>
<rect x="50" y="207" width="4" height="271" fill="#FFF3CD" clip-path="url(#clip-iteration_summaries)"/>
<use href="#icon-rotate" x="60" y="186" width="14" height="14" fill="#212121"/>
<text x="78" y="197" font-size="12" fill="#212121" text-anchor="start" font-weight="600">ITERATION_SUMMARIES</text>
<text x="271" y="197" font-size="9" fill="#43A047" text-anchor="end" font-weight="600">RLS</text>
<line x1="50" y1="207" x2="281" y2="207" stroke="#E0E0E0" stroke-width="1"/>
<text x="64" y="221" font-size="10" fill="#212121" text-anchor="start">🔑</text>
<text x="82" y="221" font-size="10" fill="#212121" text-anchor="start">id: UUID</text>
<use href="#icon-briefcase" x="62" y="229" width="12" height="12" fill="#616161"/>
<text x="82" y="239" font-size="10" fill="#212121" text-anchor="start">job_id: UUID → jobs.id  [I]</text>
<text x="82" y="257" font-size="10" fill="#212121" text-anchor="start">code_executed: INTEGER</text>
<text x="82" y="275" font-size="10" fill="#212121" text-anchor="start">created_at: TIMESTAMP</text>
<text x="82" y="293" font-size="10" fill="#212121" text-anchor="start">hypotheses_generated: INTEGER</text>
<text x="82" y="311" font-size="10" fill="#212121" text-anchor="start">hypotheses_tested: INTEGER</text>
<text x="82" y="329" font-size="10" fill="#212121" text-anchor="start">iteration: INTEGER  [U]</text>
<text x="82" y="347" font-size="10" fill="#212121" text-anchor="start">key_findings: JSONB</text>
<text x="82" y="365" font-size="10" fill="#212121" text-anchor="start">metrics: JSONB</text>
<text x="82" y="383" font-size="10" fill="#212121" text-anchor="start">new_insights: JSONB</text>
<text x="82" y="401" font-size="10" fill="#212121" text-anchor="start">next_steps: JSONB</text>
<text x="82" y="419" font-size="10" fill="#212121" text-anchor="start">summary_text: TEXT</text>
<text x="82" y="437" font-size="10" fill="#212121" text-anchor="start">updated_at: TIMESTAMP</text>
<line x1="58" y1="455" x2="273" y2="455" stroke="#E0E0E0" stroke-width="1"/>
<text x="64" y="467" font-size="9" fill="#616161" text-anchor="start">⚡ job_id</text>
<rect x="301" y="70" width="219" height="229" fill="#FFFFFF" stroke="#E0E0E0" stroke-width="1" rx="6" filter="url(#shadow)"/>
<clipPath id="clip-feedback_history"><rect x="301" y="70" width="219" height="229" rx="6"/></clipPath>
<rect x="301" y="70" width="219" height="30" fill="#FFF3CD" clip-path="url(#clip-feedback_history)"/>
<rect x="301" y="100" width="4" height="199" fill="#FFF3CD" clip-path="url(#clip-feedback_history)"/>
<use href="#icon-comment" x="311" y="79" width="14" height="14" fill="#212121"/>
<text x="329" y="90" font-size="12" fill="#212121" text-anchor="start" font-weight="600">FEEDBACK_HISTORY</text>
<text x="510" y="90" font-size="9" fill="#43A047" text-anchor="end" font-weight="600">RLS</text>
<line x1="301" y1="100" x2="520" y2="100" stroke="#E0E0E0" stroke-width="1"/>
<text x="315" y="114" font-size="10" fill="#212121" text-anchor="start">🔑</text>
<text x="333" y="114" font-size="10" fill="#212121" text-anchor="start">id: UUID</text>
<use href="#icon-briefcase" x="313" y="122" width="12" height="12" fill="#616161"/>
<text x="333" y="132" font-size="10" fill="#212121" text-anchor="start">job_id: UUID → jobs.id  [I]</text>
<text x="333" y="150" font-size="10" fill="#212121" text-anchor="start">applied: BOOLEAN</text>
<text x="333" y="168" font-size="10" fill="#212121" text-anchor="start">created_at: TIMESTAMP</text>
<text x="333" y="186" font-size="10" fill="#212121" text-anchor="start">feedback_text: TEXT</text>
<text x="333" y="204" font-size="10" fill="#212121" text-anchor="start">feedback_type: VARCHAR(50)</text>
<text x="333" y="222" font-size="10" fill="#212121" text-anchor="start">iteration: INTEGER</text>
<text x="333" y="240" font-size="10" fill="#212121" text-anchor="start">response_text: TEXT</text>
<text x="333" y="258" font-size="10" fill="#212121" text-anchor="start">updated_at: TIMESTAMP</text>
<line x1="309" y1="276" x2="512" y2="276" stroke="#E0E0E0" stroke-width="1"/>
<text x="315" y="288" font-size="9" fill="#616161" text-anchor="start">⚡ job_id</text>
<rect x="542" y="127" width="219" height="247" fill="#FFFFFF" stroke="#E0E0E0" stroke-width="1" rx="6" filter="url(#shadow)"/>
<clipPath id="clip-plots"><rect x="542" y="127" width="219" height="247" rx="6"/></clipPath>
<rect x="542" y="127" width="219" height="30" fill="#FFF3CD" clip-path="url(#clip-plots)"/>
<rect x="542" y="157" width="4" height="217" fill="#FFF3CD" clip-path="url(#clip-plots)"/>
<use href="#icon-chart" x="552" y="136" width="14" height="14" fill="#212121"/>
<text x="570" y="147" font-size="12" fill="#212121" text-anchor="start" font-weight="600">PLOTS</text>
<text x="751" y="147" font-size="9" fill="#43A047" text-anchor="end" font-weight="600">RLS</text>
<line x1="542" y1="157" x2="761" y2="157" stroke="#E0E0E0" stroke-width="1"/>
<text x="556" y="171" font-size="10" fill="#212121" text-anchor="start">🔑</text>
<text x="574" y="171" font-size="10" fill="#212121" text-anchor="start">id: UUID</text>
<use href="#icon-briefcase" x="554" y="179" width="12" height="12" fill="#616161"/>
<text x="574" y="189" font-size="10" fill="#212121" text-anchor="start">job_id: UUID → jobs.id  [I]</text>
<text x="574" y="207" font-size="10" fill="#212121" text-anchor="start">code_used: TEXT</text>
<text x="574" y="225" font-size="10" fill="#212121" text-anchor="start">created_at: TIMESTAMP</text>
<text x="574" y="243" font-size="10" fill="#212121" text-anchor="start">description: TEXT</text>
<text x="574" y="261" font-size="10" fill="#212121" text-anchor="start">file_path: VARCHAR(500)</text>
<text x="574" y="279" font-size="10" fill="#212121" text-anchor="start">iteration: INTEGER</text>
<text x="574" y="297" font-size="10" fill="#212121" text-anchor="start">plot_type: VARCHAR(50)</text>
<text x="574" y="315" font-size="10" fill="#212121" text-anchor="start">title: VARCHAR(255)</text>
<text x="574" y="333" font-size="10" fill="#212121" text-anchor="start">updated_at: TIMESTAMP</text>
<line x1="550" y1="351" x2="753" y2="351" stroke="#E0E0E0" stroke-width="1"/>
<text x="556" y="363" font-size="9" fill="#616161" text-anchor="start">⚡ job_id</text>
<rect x="355" y="469" width="180" height="36" fill="#F0F0F0" stroke="#CCCCCC" stroke-width="1" rx="4" opacity="0.65"/>
<text x="445" y="491" font-size="11" fill="#616161" text-anchor="middle" font-style="italic">JOBS</text>
<line x1="40" y1="954" x2="872" y2="954" stroke="#E0E0E0" stroke-width="1"/>
<rect x="40" y="972" width="832" height="24" fill="#FAFAFA" stroke="#E0E0E0" stroke-width="1" rx="4"/>
<text x="52" y="988" font-size="9" fill="#616161" text-anchor="start">━ CASCADE     ╌ ╌ SET NULL     🔑 PK     ● FK (target table icon)     [U] Unique     [I] Indexed     RLS = Row-Level Security</text>
<text x="40" y="1012" font-size="9" fill="#616161" text-anchor="start" font-weight="600">Table icons:</text>
<use href="#icon-file" x="118" y="1003" width="12" height="12" fill="#616161"/>
<text x="134" y="1012" font-size="9" fill="#616161" text-anchor="start">job data files</text>
<use href="#icon-comment" x="230" y="1003" width="12" height="12" fill="#616161"/>
<text x="246" y="1012" font-size="9" fill="#616161" text-anchor="start">job chat messages</text>
<use href="#icon-coins" x="358" y="1003" width="12" height="12" fill="#616161"/>
<text x="374" y="1012" font-size="9" fill="#616161" text-anchor="start">cost records</text>
<use href="#icon-chart" x="458" y="1003" width="12" height="12" fill="#616161"/>
<text x="474" y="1012" font-size="9" fill="#616161" text-anchor="start">analysis log</text>
<use href="#icon-rotate" x="558" y="1003" width="12" height="12" fill="#616161"/>
<text x="574" y="1012" font-size="9" fill="#616161" text-anchor="start">iteration summaries</text>
<use href="#icon-comment" x="698" y="1003" width="12" height="12" fill="#616161"/>
<text x="714" y="1012" font-size="9" fill="#616161" text-anchor="start">feedback history</text>
<use href="#icon-chart" x="821" y="1003" width="12" height="12" fill="#616161"/>
<text x="837" y="1012" font-size="9" fill="#616161" text-anchor="start">plots</text>
<text x="40" y="1044" font-size="11" fill="#212121" text-anchor="start" font-weight="600">Overview</text>
<text x="52" y="1060" font-size="9" fill="#616161" text-anchor="start">Operational tables record every artefact produced during a OpenScientist analysis run — uploaded data, dialogue, billing, step-by-step logs, iteration metrics, user feedback and generated plots.</text>
<text x="40" y="1088" font-size="11" fill="#212121" text-anchor="start" font-weight="600">Tables</text>
<use href="#icon-file" x="40" y="1097" width="12" height="12" fill="#616161"/>
<text x="60" y="1106" font-size="9" fill="#212121" text-anchor="start" font-weight="600">JOB_DATA_FILES</text>
<text x="60" y="1120" font-size="9" fill="#616161" text-anchor="start">An uploaded crystallography data file (MTZ reflection data, CIF coordinates or PDB model). Tracks the on-disk path, MIME type and byte size.</text>
<use href="#icon-comment" x="40" y="1131" width="12" height="12" fill="#616161"/>
<text x="60" y="1140" font-size="9" fill="#212121" text-anchor="start" font-weight="600">JOB_CHAT_MESSAGES</text>
<text x="60" y="1154" font-size="9" fill="#616161" text-anchor="start">A single message in the user–assistant dialogue within a job. Messages are stored in order and distinguished by role (user / assistant) to reconstruct the conversation.</text>
<use href="#icon-coins" x="40" y="1165" width="12" height="12" fill="#616161"/>
<text x="60" y="1174" font-size="9" fill="#212121" text-anchor="start" font-weight="600">COST_RECORDS</text>
<text x="60" y="1188" font-size="9" fill="#616161" text-anchor="start">Per-call LLM billing record capturing provider, model, input / output token counts and calculated cost in USD. Powers the Vertex AI budget enforcer&#x27;s real-time spend tracking.</text>
<use href="#icon-chart" x="40" y="1199" width="12" height="12" fill="#616161"/>
<text x="60" y="1208" font-size="9" fill="#212121" text-anchor="start" font-weight="600">ANALYSIS_LOG</text>
<text x="60" y="1222" font-size="9" fill="#616161" text-anchor="start">An individual step in the AI agent&#x27;s workflow — reasoning, code execution or literature search — with its input, output, timing and success flag. Provides a full audit trail of every action</text>
<text x="60" y="1236" font-size="9" fill="#616161" text-anchor="start">taken.</text>
<use href="#icon-rotate" x="40" y="1247" width="12" height="12" fill="#616161"/>
<text x="60" y="1256" font-size="9" fill="#212121" text-anchor="start" font-weight="600">ITERATION_SUMMARIES</text>
<text x="60" y="1270" font-size="9" fill="#616161" text-anchor="start">Roll-up of a single analysis iteration: narrative summary, key findings, hypothesis counts, code-execution count and quantitative metrics such as R-factors and completeness.</text>
<use href="#icon-comment" x="40" y="1281" width="12" height="12" fill="#616161"/>
<text x="60" y="1290" font-size="9" fill="#212121" text-anchor="start" font-weight="600">FEEDBACK_HISTORY</text>
<text x="60" y="1304" font-size="9" fill="#616161" text-anchor="start">A user correction, suggestion or approval provided during the analysis. The applied flag tracks whether the AI agent incorporated the feedback in subsequent iterations.</text>
<use href="#icon-chart" x="40" y="1315" width="12" height="12" fill="#616161"/>
<text x="60" y="1324" font-size="9" fill="#212121" text-anchor="start" font-weight="600">PLOTS</text>
<text x="60" y="1338" font-size="9" fill="#616161" text-anchor="start">A visualisation generated by the AI agent (histogram, scatter plot, heatmap etc.). Stores the image path, descriptive metadata and the Python code used to regenerate the plot.</text>
<text x="40" y="1366" font-size="11" fill="#212121" text-anchor="start" font-weight="600">Row-Level Security</text>
<text x="52" y="1382" font-size="9" fill="#616161" text-anchor="start">Every operational record inherits access control from its parent job. The job owner has full read-write access. View-level share holders can read data files, messages, logs and plots but cannot</text>
<text x="52" y="1396" font-size="9" fill="#616161" text-anchor="start">modify them. Edit-level share holders can create and update records as collaborators.</text>
<line x1="40" y1="1428" x2="872" y2="1428" stroke="#E0E0E0" stroke-width="1"/>
<text x="159" y="1444" font-size="9" fill="#9E9E9E" text-anchor="start">See also:</text>
<use href="#icon-rocket" x="225" y="1435" width="12" height="12" fill="#616161"/>
<text x="241" y="1444" font-size="9" fill="#9E9E9E" text-anchor="start">Job Core &amp; Sharing (schema-job-core)</text>
<text x="453" y="1444" font-size="9" fill="#9E9E9E" text-anchor="start">·</text>
<use href="#icon-flask" x="469" y="1435" width="12" height="12" fill="#616161"/>
<text x="485" y="1444" font-size="9" fill="#9E9E9E" text-anchor="start">Scientific Knowledge Graph (schema-scientific)</text>
</svg>
