<?xml version="1.0" encoding="UTF-8"?>
<svg xmlns="http://www.w3.org/2000/svg" xmlns:xlink="http://www.w3.org/1999/xlink" width="650" height="1062" viewBox="0 0 650 1062">
<defs>
  <style>
    text { font-family: -apple-system, "Segoe UI", Roboto, Helvetica, Arial, sans-serif; }
  </style>
  <filter id="shadow" x="-4%" y="-4%" width="110%" height="110%">
    <feDropShadow dx="1" dy="2" stdDeviation="3" flood-opacity="0.10" />
  </filter>
  <marker id="ah" markerWidth="8" markerHeight="6" refX="7" refY="3" orient="auto">
    <polygon points="0 0, 8 3, 0 6" fill="#607D8B" />
  </marker>
  <marker id="ah-null" markerWidth="8" markerHeight="6" refX="7" refY="3" orient="auto">
    <polygon points="0 0, 8 3, 0 6" fill="#90A4AE" />
  </marker>
</defs>
<rect width="650" height="1062" fill="#FFFFFF"/>
  <symbol id="icon-users" viewBox="0 0 24 24"><path d="M9 3a3.5 3.5 0 1 1 0 7 3.5 3.5 0 0 1 0-7ZM2 20a7 7 0 0 1 14 0ZM15 3a3.5 3.5 0 1 1 0 7 3.5 3.5 0 0 1 0-7ZM8 20a7 7 0 0 1 14 0Z"/></symbol>
  <symbol id="icon-clipboard" viewBox="0 0 24 24"><path d="M8 0h8v3h4v21H4V3h4ZM7.5 9h9v1.5h-9ZM7.5 13h9v1.5h-9ZM7.5 17h5v1.5h-5Z"/></symbol>
  <symbol id="icon-flask" viewBox="0 0 24 24"><path d="M8 0h8v2h-2.5v7l5.5 11H5l5.5-11V2H8Z"/></symbol>
  <symbol id="icon-user" viewBox="0 0 24 24"><path d="M12 2a4 4 0 1 1 0 8 4 4 0 0 1 0-8ZM4 22a8 8 0 0 1 16 0Z"/></symbol>
  <symbol id="icon-briefcase" viewBox="0 0 24 24"><path d="M8 4a2 2 0 0 1 2-2h4a2 2 0 0 1 2 2v1h5v7H3V5h5ZM3 14h18v6a2 2 0 0 1-2 2H5a2 2 0 0 1-2-2Z"/></symbol>
  <symbol id="icon-share" viewBox="0 0 24 24"><path d="M18 2a3 3 0 1 1 0 6 3 3 0 0 1 0-6ZM6 9a3 3 0 1 1 0 6 3 3 0 0 1 0-6ZM18 16a3 3 0 1 1 0 6 3 3 0 0 1 0-6ZM15.6 6.4l-7.2 3.6.8 1.5 7.2-3.6ZM15.6 17.6l-7.2-3.6.8-1.5 7.2 3.6Z"/></symbol>
<text x="325" y="28" font-size="16" fill="#212121" text-anchor="middle" font-weight="600">OpenScientist — Job Core &amp; Sharing</text>
<text x="325" y="48" font-size="10" fill="#616161" text-anchor="middle">2 tables  ·  RLS enabled  ·  PostgreSQL 18 UUIDv7</text>
<path d="M 153 357 C 10 357, 10 190, 50 190" fill="none" stroke="#90A4AE" stroke-width="1.4" stroke-dasharray="6,4" opacity="0.7"/>
<circle cx="50" cy="190" r="3" fill="#90A4AE" opacity="0.7"/>
<path d="M 282 128 C 261 128, 251 194, 230 194" fill="none" stroke="#607D8B" stroke-width="1.4" opacity="0.8"/>
<circle cx="230" cy="194" r="3" fill="#607D8B" opacity="0.8"/>
<path d="M 282 103 C 113 103, 113 357, 153 357" fill="none" stroke="#607D8B" stroke-width="1.4" opacity="0.8"/>
<circle cx="153" cy="357" r="3" fill="#607D8B" opacity="0.8"/>
<rect x="153" y="302" width="238" height="370" fill="#FFFFFF" stroke="#E0E0E0" stroke-width="1" rx="6" filter="url(#shadow)"/>
<clipPath id="clip-jobs"><rect x="153" y="302" width="238" height="370" rx="6"/></clipPath>
<rect x="153" y="302" width="238" height="30" fill="#D5EDDA" clip-path="url(#clip-jobs)"/>
<rect x="153" y="332" width="4" height="340" fill="#D5EDDA" clip-path="url(#clip-jobs)"/>
<use href="#icon-briefcase" x="163" y="311" width="14" height="14" fill="#212121"/>
<text x="181" y="322" font-size="12" fill="#212121" text-anchor="start" font-weight="600">JOBS</text>
<text x="381" y="322" font-size="9" fill="#43A047" text-anchor="end" font-weight="600">RLS</text>
<line x1="153" y1="332" x2="391" y2="332" stroke="#E0E0E0" stroke-width="1"/>
<text x="167" y="346" font-size="10" fill="#212121" text-anchor="start">🔑</text>
<text x="185" y="346" font-size="10" fill="#212121" text-anchor="start">id: UUID</text>
<use href="#icon-user" x="165" y="354" width="12" height="12" fill="#616161"/>
<text x="185" y="364" font-size="10" fill="#212121" text-anchor="start">owner_id: UUID → users.id  [I]</text>
<text x="185" y="382" font-size="10" fill="#212121" text-anchor="start">created_at: TIMESTAMP</text>
<text x="185" y="400" font-size="10" fill="#212121" text-anchor="start">current_iteration: INTEGER</text>
<text x="185" y="418" font-size="10" fill="#212121" text-anchor="start">description: TEXT</text>
<text x="185" y="436" font-size="10" fill="#212121" text-anchor="start">error_message: TEXT</text>
<text x="185" y="454" font-size="10" fill="#212121" text-anchor="start">llm_config: JSONB</text>
<text x="185" y="472" font-size="10" fill="#212121" text-anchor="start">llm_provider: VARCHAR(50)</text>
<text x="185" y="490" font-size="10" fill="#212121" text-anchor="start">max_iterations: INTEGER</text>
<text x="185" y="508" font-size="10" fill="#212121" text-anchor="start">pdb_code: VARCHAR(10)</text>
<text x="185" y="526" font-size="10" fill="#212121" text-anchor="start">result_summary: TEXT</text>
<text x="185" y="544" font-size="10" fill="#212121" text-anchor="start">resume_iteration: INTEGER</text>
<text x="185" y="562" font-size="10" fill="#212121" text-anchor="start">space_group: VARCHAR(50)</text>
<text x="185" y="580" font-size="10" fill="#212121" text-anchor="start">status: VARCHAR(50)  [I]</text>
<text x="185" y="598" font-size="10" fill="#212121" text-anchor="start">title: VARCHAR(255)</text>
<text x="185" y="616" font-size="10" fill="#212121" text-anchor="start">updated_at: TIMESTAMP</text>
<line x1="161" y1="634" x2="383" y2="634" stroke="#E0E0E0" stroke-width="1"/>
<text x="167" y="646" font-size="9" fill="#616161" text-anchor="start">⚡ owner_id</text>
<text x="167" y="661" font-size="9" fill="#616161" text-anchor="start">⚡ status</text>
<rect x="282" y="70" width="306" height="220" fill="#FFFFFF" stroke="#E0E0E0" stroke-width="1" rx="6" filter="url(#shadow)"/>
<clipPath id="clip-job_shares"><rect x="282" y="70" width="306" height="220" rx="6"/></clipPath>
<rect x="282" y="70" width="306" height="30" fill="#D5EDDA" clip-path="url(#clip-job_shares)"/>
<rect x="282" y="100" width="4" height="190" fill="#D5EDDA" clip-path="url(#clip-job_shares)"/>
<use href="#icon-share" x="292" y="79" width="14" height="14" fill="#212121"/>
<text x="310" y="90" font-size="12" fill="#212121" text-anchor="start" font-weight="600">JOB_SHARES</text>
<text x="578" y="90" font-size="9" fill="#43A047" text-anchor="end" font-weight="600">RLS</text>
<line x1="282" y1="100" x2="588" y2="100" stroke="#E0E0E0" stroke-width="1"/>
<text x="296" y="114" font-size="10" fill="#212121" text-anchor="start">🔑</text>
<text x="314" y="114" font-size="10" fill="#212121" text-anchor="start">id: UUID</text>
<use href="#icon-briefcase" x="294" y="122" width="12" height="12" fill="#616161"/>
<text x="314" y="132" font-size="10" fill="#212121" text-anchor="start">job_id: UUID → jobs.id  [I]</text>
<use href="#icon-user" x="294" y="140" width="12" height="12" fill="#616161"/>
<text x="314" y="150" font-size="10" fill="#212121" text-anchor="start">shared_with_user_id: UUID → users.id  [I]</text>
<text x="314" y="168" font-size="10" fill="#212121" text-anchor="start">created_at: TIMESTAMP</text>
<text x="314" y="186" font-size="10" fill="#212121" text-anchor="start">permission_level: VARCHAR(10)</text>
<text x="314" y="204" font-size="10" fill="#212121" text-anchor="start">updated_at: TIMESTAMP</text>
<line x1="290" y1="222" x2="580" y2="222" stroke="#E0E0E0" stroke-width="1"/>
<text x="296" y="234" font-size="9" fill="#616161" text-anchor="start">⚡ shared_with_user_id</text>
<text x="296" y="249" font-size="9" fill="#616161" text-anchor="start">⚡ job_id</text>
<text x="296" y="264" font-size="9" fill="#616161" text-anchor="start">✓ (job_id, shared_with_user_id)</text>
<text x="296" y="279" font-size="9" fill="#616161" text-anchor="start">⚙️ permission_level IN (&#x27;view&#x27;, &#x27;edit&#x27;)</text>
<rect x="50" y="185" width="180" height="36" fill="#F0F0F0" stroke="#CCCCCC" stroke-width="1" rx="4" opacity="0.65"/>
<text x="140" y="207" font-size="11" fill="#616161" text-anchor="middle" font-style="italic">USERS</text>
<line x1="40" y1="702" x2="610" y2="702" stroke="#E0E0E0" stroke-width="1"/>
<rect x="40" y="720" width="570" height="24" fill="#FAFAFA" stroke="#E0E0E0" stroke-width="1" rx="4"/>
<text x="52" y="736" font-size="9" fill="#616161" text-anchor="start">━ CASCADE     ╌ ╌ SET NULL     🔑 PK     ● FK (target table icon)     [U] Unique     [I] Indexed     RLS = Row-Level Security</text>
<text x="40" y="760" font-size="9" fill="#616161" text-anchor="start" font-weight="600">Table icons:</text>
<use href="#icon-briefcase" x="118" y="751" width="12" height="12" fill="#616161"/>
<text x="134" y="760" font-size="9" fill="#616161" text-anchor="start">jobs</text>
<use href="#icon-share" x="174" y="751" width="12" height="12" fill="#616161"/>
<text x="190" y="760" font-size="9" fill="#616161" text-anchor="start">job shares</text>
<text x="40" y="778" font-size="11" fill="#212121" text-anchor="start" font-weight="600">Overview</text>
<text x="52" y="794" font-size="9" fill="#616161" text-anchor="start">The core work-unit model. A job represents a complete crystallographic analysis workflow — from data upload through iterative AI</text>
<text x="52" y="808" font-size="9" fill="#616161" text-anchor="start">reasoning to a final report. Sharing allows collaborative review without duplicating data.</text>
<text x="40" y="836" font-size="11" fill="#212121" text-anchor="start" font-weight="600">Tables</text>
<use href="#icon-briefcase" x="40" y="845" width="12" height="12" fill="#616161"/>
<text x="60" y="854" font-size="9" fill="#212121" text-anchor="start" font-weight="600">JOBS</text>
<text x="60" y="868" font-size="9" fill="#616161" text-anchor="start">Central work unit tracking status (pending / running / completed / failed / cancelled), iteration progress, LLM provider selection</text>
<text x="60" y="882" font-size="9" fill="#616161" text-anchor="start">and scientific metadata such as PDB code and space group. All child tables reference this row.</text>
<use href="#icon-share" x="40" y="893" width="12" height="12" fill="#616161"/>
<text x="60" y="902" font-size="9" fill="#212121" text-anchor="start" font-weight="600">JOB_SHARES</text>
<text x="60" y="916" font-size="9" fill="#616161" text-anchor="start">Grants another user view or edit access to a job. This enables collaborative analysis while RLS policies ensure each user only</text>
<text x="60" y="930" font-size="9" fill="#616161" text-anchor="start">sees jobs they own or have been explicitly invited to.</text>
<text x="40" y="958" font-size="11" fill="#212121" text-anchor="start" font-weight="600">Row-Level Security</text>
<text x="52" y="974" font-size="9" fill="#616161" text-anchor="start">Job owners have unrestricted access. Other users may view a job if they hold a share record and may edit only if the share specifies</text>
<text x="52" y="988" font-size="9" fill="#616161" text-anchor="start">edit permission. Orphaned jobs (owner deleted, owner_id IS NULL) remain visible to all authenticated users to prevent data loss.</text>
<line x1="40" y1="1020" x2="610" y2="1020" stroke="#E0E0E0" stroke-width="1"/>
<text x="-112" y="1036" font-size="9" fill="#9E9E9E" text-anchor="start">See also:</text>
<use href="#icon-users" x="-46" y="1027" width="12" height="12" fill="#616161"/>
<text x="-30" y="1036" font-size="9" fill="#9E9E9E" text-anchor="start">User Authentication (schema-user-auth)</text>
<text x="194" y="1036" font-size="9" fill="#9E9E9E" text-anchor="start">·</text>
<use href="#icon-clipboard" x="210" y="1027" width="12" height="12" fill="#616161"/>
<text x="226" y="1036" font-size="9" fill="#9E9E9E" text-anchor="start">Operations &amp; Logging (schema-operations)</text>
<text x="461" y="1036" font-size="9" fill="#9E9E9E" text-anchor="start">·</text>
<use href="#icon-flask" x="477" y="1027" width="12" height="12" fill="#616161"/>
<text x="493" y="1036" font-size="9" fill="#9E9E9E" text-anchor="start">Scientific Knowledge Graph (schema-scientific)</text>
</svg>
